<svg width="141" height="35" viewBox="0 0 141 35" fill="none" xmlns="http://www.w3.org/2000/svg">
<path d="M10.5 16.5937H6.36188L9.93416 10.7013C10.0226 10.5562 10.022 10.3781 9.93273 10.2334C9.84288 10.0889 9.6783 10 9.50004 10H3.50002C3.28479 10 3.09377 10.1292 3.02593 10.3204L0.0259192 18.7892C-0.0253831 18.932 0.000528465 19.0895 0.0942788 19.2117C0.18855 19.334 0.339462 19.4062 0.500009 19.4062H4.74182L2.04064 25.3468C1.94389 25.5578 2.02501 25.8037 2.23205 25.9267C2.43569 26.0488 2.70926 26.0167 2.87359 25.8426L10.8736 17.3739C11.0045 17.2361 11.0368 17.0387 10.9562 16.8707C10.8756 16.7023 10.6969 16.5937 10.5 16.5937Z" fill="#1D4ED8"/>
<path d="M35.0689 17.6393C36.0516 17.8696 36.8117 18.3456 37.3491 19.0673C37.9019 19.7736 38.1783 20.5951 38.1783 21.5317C38.1783 22.9597 37.7023 24.0653 36.7503 24.8484C35.8136 25.6161 34.4624 26 32.6966 26H24.1516V9.69316H32.4663C34.1246 9.69316 35.4297 10.054 36.3817 10.7757C37.3337 11.4974 37.8097 12.5492 37.8097 13.9311C37.8097 14.8831 37.5564 15.6892 37.0497 16.3495C36.5583 16.9944 35.8981 17.4243 35.0689 17.6393ZM29.2648 16.0501H31.2455C31.7062 16.0501 32.044 15.9579 32.259 15.7737C32.4893 15.5894 32.6045 15.3054 32.6045 14.9215C32.6045 14.5223 32.4893 14.2305 32.259 14.0463C32.044 13.8466 31.7062 13.7468 31.2455 13.7468H29.2648V16.0501ZM31.591 21.9003C32.0517 21.9003 32.3895 21.8158 32.6045 21.6469C32.8348 21.4626 32.9499 21.1709 32.9499 20.7717C32.9499 19.9886 32.497 19.597 31.591 19.597H29.2648V21.9003H31.591ZM46.069 26.1612C44.7638 26.1612 43.5892 25.8925 42.545 25.3551C41.5009 24.8177 40.6794 24.0499 40.0806 23.0519C39.4971 22.0385 39.2054 20.8561 39.2054 19.5049C39.2054 18.1537 39.4971 16.979 40.0806 15.981C40.6794 14.9675 41.5009 14.1921 42.545 13.6547C43.5892 13.1173 44.7638 12.8486 46.069 12.8486C47.3741 12.8486 48.5488 13.1173 49.5929 13.6547C50.637 14.1921 51.4508 14.9675 52.0343 15.981C52.6332 16.979 52.9326 18.1537 52.9326 19.5049C52.9326 20.8561 52.6332 22.0385 52.0343 23.0519C51.4508 24.0499 50.637 24.8177 49.5929 25.3551C48.5488 25.8925 47.3741 26.1612 46.069 26.1612ZM46.069 21.739C46.545 21.739 46.9442 21.5548 47.2666 21.1863C47.5891 20.8024 47.7503 20.2419 47.7503 19.5049C47.7503 18.7679 47.5891 18.2151 47.2666 17.8466C46.9442 17.4627 46.545 17.2708 46.069 17.2708C45.593 17.2708 45.1937 17.4627 44.8713 17.8466C44.5488 18.2151 44.3876 18.7679 44.3876 19.5049C44.3876 20.2419 44.5412 20.8024 44.8483 21.1863C45.1707 21.5548 45.5776 21.739 46.069 21.739ZM59.6521 8.95613V26H54.5389V8.95613H59.6521ZM70.0457 21.6469V26H68.111C64.5487 26 62.7675 24.2265 62.7675 20.6795V17.2708H61.1553V13.0098H62.7675V9.87742H67.8807V13.0098H69.9997V17.2708H67.8807V20.7717C67.8807 21.0788 67.9498 21.3014 68.088 21.4396C68.2415 21.5778 68.4872 21.6469 68.825 21.6469H70.0457ZM89.3363 12.9177C90.9947 12.9177 92.2768 13.4167 93.1827 14.4148C94.104 15.4128 94.5647 16.7641 94.5647 18.4685V26H89.4745V19.1134C89.4745 18.5606 89.3056 18.1306 88.9678 17.8235C88.6454 17.5011 88.2077 17.3399 87.655 17.3399C87.0868 17.3399 86.6416 17.5011 86.3191 17.8235C85.9967 18.1306 85.8354 18.5606 85.8354 19.1134V26H80.7453V19.1134C80.7453 18.5606 80.5764 18.1306 80.2386 17.8235C79.9161 17.5011 79.4785 17.3399 78.9257 17.3399C78.3576 17.3399 77.9123 17.5011 77.5899 17.8235C77.2674 18.1306 77.1062 18.5606 77.1062 19.1134V26H71.993V13.0098H77.1062V14.7603C77.4747 14.2075 77.9737 13.7622 78.6033 13.4244C79.2482 13.0866 80.0006 12.9177 80.8605 12.9177C81.7971 12.9177 82.6263 13.125 83.3479 13.5395C84.0696 13.9388 84.6454 14.5069 85.0754 15.2439C85.5514 14.5683 86.1579 14.0155 86.8949 13.5856C87.6319 13.1403 88.4457 12.9177 89.3363 12.9177ZM102.952 26.1612C101.647 26.1612 100.473 25.8925 99.4284 25.3551C98.3843 24.8177 97.5628 24.0499 96.964 23.0519C96.3805 22.0385 96.0887 20.8561 96.0887 19.5049C96.0887 18.1537 96.3805 16.979 96.964 15.981C97.5628 14.9675 98.3843 14.1921 99.4284 13.6547C100.473 13.1173 101.647 12.8486 102.952 12.8486C104.258 12.8486 105.432 13.1173 106.476 13.6547C107.52 14.1921 108.334 14.9675 108.918 15.981C109.517 16.979 109.816 18.1537 109.816 19.5049C109.816 20.8561 109.517 22.0385 108.918 23.0519C108.334 24.0499 107.52 24.8177 106.476 25.3551C105.432 25.8925 104.258 26.1612 102.952 26.1612ZM102.952 21.739C103.428 21.739 103.828 21.5548 104.15 21.1863C104.472 20.8024 104.634 20.2419 104.634 19.5049C104.634 18.7679 104.472 18.2151 104.15 17.8466C103.828 17.4627 103.428 17.2708 102.952 17.2708C102.476 17.2708 102.077 17.4627 101.755 17.8466C101.432 18.2151 101.271 18.7679 101.271 19.5049C101.271 20.2419 101.425 20.8024 101.732 21.1863C102.054 21.5548 102.461 21.739 102.952 21.739ZM110.731 19.5049C110.731 18.1383 110.962 16.956 111.422 15.9579C111.898 14.9445 112.543 14.1768 113.357 13.6547C114.171 13.1173 115.084 12.8486 116.098 12.8486C116.942 12.8486 117.664 13.0252 118.263 13.3783C118.877 13.7161 119.345 14.1845 119.668 14.7833V8.95613H124.781V26H119.668V24.2265C119.345 24.8254 118.877 25.3014 118.263 25.6545C117.664 25.9923 116.942 26.1612 116.098 26.1612C115.084 26.1612 114.171 25.9002 113.357 25.3781C112.543 24.8407 111.898 24.073 111.422 23.0749C110.962 22.0615 110.731 20.8715 110.731 19.5049ZM119.691 19.5049C119.691 18.8139 119.514 18.2765 119.161 17.8926C118.808 17.5088 118.355 17.3168 117.802 17.3168C117.249 17.3168 116.796 17.5088 116.443 17.8926C116.09 18.2765 115.914 18.8139 115.914 19.5049C115.914 20.1959 116.09 20.7333 116.443 21.1172C116.796 21.501 117.249 21.693 117.802 21.693C118.355 21.693 118.808 21.501 119.161 21.1172C119.514 20.7333 119.691 20.1959 119.691 19.5049ZM139.653 19.3897C139.653 19.7429 139.63 20.0807 139.584 20.4032H131.361C131.438 21.5241 131.906 22.0845 132.766 22.0845C133.319 22.0845 133.718 21.8312 133.964 21.3245H139.376C139.192 22.2457 138.8 23.0749 138.202 23.8119C137.618 24.5336 136.873 25.1094 135.967 25.5394C135.077 25.9539 134.094 26.1612 133.019 26.1612C131.73 26.1612 130.578 25.8925 129.565 25.3551C128.566 24.8177 127.783 24.0499 127.215 23.0519C126.662 22.0385 126.386 20.8561 126.386 19.5049C126.386 18.1537 126.662 16.979 127.215 15.981C127.783 14.9675 128.566 14.1921 129.565 13.6547C130.578 13.1173 131.73 12.8486 133.019 12.8486C134.309 12.8486 135.453 13.1173 136.451 13.6547C137.465 14.1768 138.248 14.9292 138.8 15.9119C139.369 16.8946 139.653 18.0539 139.653 19.3897ZM134.47 18.169C134.47 17.7391 134.332 17.4166 134.056 17.2017C133.779 16.9714 133.434 16.8562 133.019 16.8562C132.113 16.8562 131.584 17.2938 131.43 18.169H134.47Z" fill="#343434" />
<circle cx="14.5" cy="22.5" r="3.5" fill="#1D4ED8"/>
<circle cx="14.5" cy="13.5" r="3.5" fill="#1D4ED8"/>
</svg>
