<svg width="90" height="92" viewBox="0 0 90 92" fill="none" xmlns="http://www.w3.org/2000/svg">
<path fill-rule="evenodd" clip-rule="evenodd" d="M7 18C10.866 18 14 14.866 14 11C14 7.13401 10.866 4 7 4C3.13401 4 0 7.13401 0 11C0 14.866 3.13401 18 7 18ZM55 43C58.866 43 62 39.866 62 36C62 32.134 58.866 29 55 29C51.134 29 48 32.134 48 36C48 39.866 51.134 43 55 43ZM12 36C13.6569 36 15 34.6569 15 33C15 31.3431 13.6569 30 12 30C10.3431 30 9 31.3431 9 33C9 34.6569 10.3431 36 12 36ZM75 67C76.6569 67 78 65.6569 78 64C78 62.3431 76.6569 61 75 61C73.3431 61 72 62.3431 72 64C72 65.6569 73.3431 67 75 67ZM30 90C31.6569 90 33 88.6569 33 87C33 85.3431 31.6569 84 30 84C28.3431 84 27 85.3431 27 87C27 88.6569 28.3431 90 30 90ZM86 14C87.6569 14 89 12.6569 89 11C89 9.34315 87.6569 8 86 8C84.3431 8 83 9.34315 83 11C83 12.6569 84.3431 14 86 14ZM8 86C10.2091 86 12 84.2091 12 82C12 79.7909 10.2091 78 8 78C5.79086 78 4 79.7909 4 82C4 84.2091 5.79086 86 8 86ZM36 21C38.2091 21 40 19.2091 40 17C40 14.7909 38.2091 13 36 13C33.7909 13 32 14.7909 32 17C32 19.2091 33.7909 21 36 21ZM59 10C61.7614 10 64 7.76142 64 5C64 2.23858 61.7614 0 59 0C56.2386 0 54 2.23858 54 5C54 7.76142 56.2386 10 59 10ZM53 70C55.2091 70 57 68.2091 57 66C57 63.7909 55.2091 62 53 62C50.7909 62 49 63.7909 49 66C49 68.2091 50.7909 70 53 70ZM82 92C84.7614 92 87 89.7614 87 87C87 84.2386 84.7614 82 82 82C79.2386 82 77 84.2386 77 87C77 89.7614 79.2386 92 82 92ZM28 63C30.7614 63 33 60.7614 33 58C33 55.2386 30.7614 53 28 53C25.2386 53 23 55.2386 23 58C23 60.7614 25.2386 63 28 63ZM85 50C87.7614 50 90 47.7614 90 45C90 42.2386 87.7614 40 85 40C82.2386 40 80 42.2386 80 45C80 47.7614 82.2386 50 85 50ZM76 29C77.1046 29 78 28.1046 78 27C78 25.8954 77.1046 25 76 25C74.8954 25 74 25.8954 74 27C74 28.1046 74.8954 29 76 29ZM56 91C57.1046 91 58 90.1046 58 89C58 87.8954 57.1046 87 56 87C54.8954 87 54 87.8954 54 89C54 90.1046 54.8954 91 56 91ZM31 41C32.1046 41 33 40.1046 33 39C33 37.8954 32.1046 37 31 37C29.8954 37 29 37.8954 29 39C29 40.1046 29.8954 41 31 41ZM8 60C9.10457 60 10 59.1046 10 58C10 56.8954 9.10457 56 8 56C6.89543 56 6 56.8954 6 58C6 59.1046 6.89543 60 8 60Z" fill="#3F3D56"/>
</svg>
